<?xml version="1.0" encoding="UTF-8"?>
<svg xmlns="http://www.w3.org/2000/svg" width="460" height="468" viewBox="0 0 460 468" role="img" aria-label="Docker Lab roadmap">
  <defs>
    <style>
      .title { font: 700 15px 'IBM Plex Sans', 'Helvetica Neue', Helvetica, Arial, sans-serif; fill: #1A2332; }
      .label { font: 600 13px 'IBM Plex Sans', 'Helvetica Neue', Helvetica, Arial, sans-serif; fill: #1A2332; }
      .label-w { font: 600 13px 'IBM Plex Sans', 'Helvetica Neue', Helvetica, Arial, sans-serif; fill: #FFFFFF; }
      .small { font: 500 11px 'IBM Plex Sans', 'Helvetica Neue', Helvetica, Arial, sans-serif; fill: #5A6A7A; }
      .small-w { font: 500 11px 'IBM Plex Sans', 'Helvetica Neue', Helvetica, Arial, sans-serif; fill: rgba(255,255,255,0.9); }
    </style>
    <marker id="arrow" markerWidth="8" markerHeight="8" refX="6" refY="3" orient="auto">
      <path d="M0,0 L6,3 L0,6 Z" fill="#00897B"/>
    </marker>
  </defs>
  <rect width="460" height="468" rx="12" fill="#FAFBFC"/>
  <text class="title" x="24" y="28">Where this is heading</text>
  <rect x="80" y="48" width="280" height="40" rx="8" fill="#00897B" stroke="#00897B" stroke-width="2"/>
  <text class="label-w" x="220" y="73" text-anchor="middle">Docker Lab</text>
  <rect x="376" y="56" width="56" height="24" rx="6" fill="#2E7D32"/>
  <text class="small-w" x="404" y="72" text-anchor="middle">today</text>
  <line x1="220" y1="88" x2="220" y2="104" stroke="#00897B" stroke-width="2" marker-end="url(#arrow)"/>
  <rect x="80" y="104" width="280" height="40" rx="8" fill="#FFFFFF" stroke="#00897B" stroke-width="2"/>
  <text class="label" x="220" y="129" text-anchor="middle">Compose Lab</text>
  <rect x="376" y="112" width="56" height="24" rx="6" fill="#B0BEC5"/>
  <text class="small-w" x="404" y="128" text-anchor="middle">next</text>
  <line x1="220" y1="144" x2="220" y2="160" stroke="#00897B" stroke-width="2" marker-end="url(#arrow)"/>
  <rect x="80" y="160" width="280" height="40" rx="8" fill="#FFFFFF" stroke="#00897B" stroke-width="2"/>
  <text class="label" x="220" y="185" text-anchor="middle">Kind Lab</text>
  <rect x="376" y="168" width="56" height="24" rx="6" fill="#B0BEC5"/>
  <text class="small-w" x="404" y="184" text-anchor="middle">next</text>
  <line x1="220" y1="200" x2="220" y2="216" stroke="#00897B" stroke-width="2" marker-end="url(#arrow)"/>
  <rect x="80" y="216" width="280" height="40" rx="8" fill="#FFFFFF" stroke="#00897B" stroke-width="2"/>
  <text class="label" x="220" y="241" text-anchor="middle">Talos Lab</text>
  <rect x="376" y="224" width="56" height="24" rx="6" fill="#B0BEC5"/>
  <text class="small-w" x="404" y="240" text-anchor="middle">next</text>
  <line x1="220" y1="256" x2="220" y2="272" stroke="#00897B" stroke-width="2" marker-end="url(#arrow)"/>
  <rect x="80" y="272" width="280" height="40" rx="8" fill="#FFFFFF" stroke="#00897B" stroke-width="2"/>
  <text class="label" x="220" y="297" text-anchor="middle">Kubernetes Lab</text>
  <rect x="376" y="280" width="56" height="24" rx="6" fill="#B0BEC5"/>
  <text class="small-w" x="404" y="296" text-anchor="middle">next</text>
  <line x1="220" y1="312" x2="220" y2="328" stroke="#00897B" stroke-width="2" marker-end="url(#arrow)"/>
  <rect x="80" y="328" width="280" height="40" rx="8" fill="#FFFFFF" stroke="#00897B" stroke-width="2"/>
  <text class="label" x="220" y="353" text-anchor="middle">GitOps Lab</text>
  <rect x="376" y="336" width="56" height="24" rx="6" fill="#B0BEC5"/>
  <text class="small-w" x="404" y="352" text-anchor="middle">next</text>
  <line x1="220" y1="368" x2="220" y2="384" stroke="#00897B" stroke-width="2" marker-end="url(#arrow)"/>
  <rect x="80" y="384" width="280" height="40" rx="8" fill="#FFFFFF" stroke="#00897B" stroke-width="2"/>
  <text class="label" x="220" y="409" text-anchor="middle">Platform Lab</text>
  <rect x="376" y="392" width="56" height="24" rx="6" fill="#B0BEC5"/>
  <text class="small-w" x="404" y="408" text-anchor="middle">next</text>
  <text class="small" x="24" y="448">Same CLI habits: install → verify → doctor → upgrade → backup</text>
</svg>
